<svg width="512" height="512" version="1.1" viewBox="0 0 512 512" xmlns="http://www.w3.org/2000/svg"><defs><style>.cls-1 {
        fill: #fff;
        fill-rule: evenodd;
      }</style></defs><path class="cls-1" d="M176.585,11h0Zm155.388,0h0ZM178.9,11c-89.029,67.911-43.658,140.338-34.788,156.732,1.4-5.372-15.7,46.005,33.628,82.429-8.363-12.87-31.778-42.17-22.032-66.176,3.436,25.856,25.252,37.223,34.788,41.795,0.831,8.74,4.739,19.381,13.915,26.7q-0.579-9.286-1.159-18.576l12.756,9.288c-1.789,1.791,6.04,14.463,5.8-67.336-10.375,1.58-22.254,1.143-33.629,0,40.579-10.23,49.819-34.742,52.182-39.474,6.662-13.735,16.2-9.6,28.991-32.507,5.024,1.935,3.681,4.75,15.075,5.805-7.819,3.193-9.042,1.359-8.118,26.7l12.756-11.609c-15.567,26.285-31.466,72.091,5.8,118.419-0.878.66,6.364-5.021,12.756-9.288q-0.581,9.288-1.16,18.576c1.546-1.161,10.612-5.532,13.915-26.7,1.854-.647,24.531-10.417,35.948-41.795,0.75,31.056-11.237,48.661-23.192,66.176,3.384-2.467,41.936-29.183,33.629-82.429,3.734-5.5,58.017-85.61-32.469-155.571,3.924,0.233,113.445,31.522,77.694,148.6,4.392-5.278,15.032-11.818,26.671-54.566,2.253,4,60.651,109.9-57.981,157.893,7.4,0.907,22.039,5.053,62.619-13.932-5.439,15.837-52.433,85.186-93.928,97.522-0.543-1.086,15.269,5.909,42.9-9.288-2.247,2.167-45.441,38.426-86.97,38.312,0,1.548,1.521,11.393,13.915,23.22-2.379-.25-16.463-3.577-26.671-12.771-0.083,3.667,15.312,29.2,33.629,47.6-2.6-.5-27.986-8.236-48.7-26.7-1.186.635-4.22,12,5.8,24.38-9.276,18.187-25.3,49.964-27.831,54.566-2.628-4.75-27.064-52.984-27.83-54.566,0.851-1.362,11.025-13.08,5.8-24.38-2.248,1.25-9.89,12-48.7,26.7,6.1-6.106,19.8-15.178,33.629-47.6-1.748.833-10.247,8.123-26.671,12.771,0.074-1.039,12.333-13.624,13.915-23.22-8.657-.5-48.218-3.484-86.971-38.312,2.519,1.261,35.452,16.092,41.746,8.127-26.159-7.862-76.787-56.087-92.769-95.2,4.795,0.253,36.548,19.5,62.619,12.771-13.241-4.318-110-40.5-57.98-157.893,3.942,20.574,13.5,42.736,26.671,54.566C88.208,120.308,75.682,52.069,178.9,11Z"/></svg>
